# xmcd
#
# Track frame offsets: 
#        150
#        13313
#        22984
#        32548
#        44078
#        59524
#        71622
#        83331
#        101617
#        114766
#        123961
#        136371
#
# Disc length: 1954 seconds
#
# Revision: 0
# Processed by: cddbd v1.5.2PL0 Copyright (c) Steve Scherf et al.
# Submitted via: ExactAudioCopy v1.3
#
DISCID=9707a00c
DTITLE=Hank Williams Jr - Ballads Of The Hills and Plains
DYEAR=1965
DGENRE=Country
TTITLE0=The River
TTITLE1=Doc Holiday
TTITLE2=Cowpoke
TTITLE3=Blood's Thicker Than Water
TTITLE4=The Blizzard
TTITLE5=Stampede
TTITLE6=The Rainmaker
TTITLE7=Streets Of Laredo
TTITLE8=Black Lightning
TTITLE9=Big Twenty
TTITLE10=The Eyes Of Death
TTITLE11=I'm Afraid
EXTD=
EXTT0=
EXTT1=
EXTT2=
EXTT3=
EXTT4=
EXTT5=
EXTT6=
EXTT7=
EXTT8=
EXTT9=
EXTT10=
EXTT11=
PLAYORDER=
